#!OML:ASF F:\VICON\USERDATA\INSTALL\rory3\rory3.ASF
:FULLY-SPECIFIED
:DEGREES
318
root -0.0286447 15.9959 11.1775 0.892387 2.38 1.97034
lowerback 12.5808 -0.530795 -7.14615
upperback -4.58211 -1.74418 2.00509
thorax -11.8898 -0.182212 6.66257
lowerneck -10.4531 -5.09726 -3.36781
upperneck 19.4915 -7.12071 3.26357
head 7.98464 -3.33226 0.9175
rclavicle 5.71506e-016 -1.07344e-014
rhumerus -43.6401 -7.59952 -78.3095
rradius 19.8097
rwrist 12.8031
rhand -8.10957 21.0673
rfingers 7.12502
rthumb 17.8034 -8.13773
lclavicle 5.71506e-016 -1.07344e-014
lhumerus -37.6115 10.5369 81.6088
lradius 23.0313
lwrist -3.02861
lhand -3.86327 19.2013
lfingers 7.12502
lthumb 21.8853 47.9835
rfemur -24.7704 16.1988 19.1916
rtibia 34.4939
rfoot -9.81543 -11.3976
rtoes 24.0395
lfemur -4.00959 1.1129 -21.4777
ltibia 55.6384
lfoot 19.2672 0.102411
ltoes 5.48419
319
root -0.0376778 16.0063 11.3149 0.907611 2.67245 1.87167
lowerback 12.4813 -0.57177 -6.96906
upperback -4.58183 -1.76464 1.97191
thorax -11.829 -0.210591 6.52356
lowerneck -10.4137 -5.1645 -3.51537
upperneck 19.4711 -7.22476 3.44674
head 7.98745 -3.3756 0.991764
rclavicle -2.73329e-015 -5.56597e-015
rhumerus -43.5074 -7.26585 -78.5256
rradius 20.0674
rwrist 12.3272
rhand -8.12933 21.0207
rfingers 7.12502
rthumb 17.7844 -8.18607
lclavicle -2.73329e-015 -5.56597e-015
lhumerus -37.9315 10.4849 81.4842
lradius 23.0989
lwrist -3.27147
lhand -4.14931 19.0987
lfingers 7.12502
lthumb 21.6106 47.9129
rfemur -23.9874 15.8026 19.5384
rtibia 34.2637
rfoot -10.0941 -11.2829
rtoes 22.9194
lfemur -5.6996 1.122 -21.2375
ltibia 58.0832
lfoot 22.1272 1.87475
ltoes 8.77031
320
root -0.048296 16.0177 11.4454 0.879207 2.88231 1.69444
lowerback 12.5032 -0.557769 -6.77632
upperback -4.56728 -1.71165 1.98505
thorax -11.8364 -0.199591 6.41676
lowerneck -10.4749 -5.24019 -3.62783
upperneck 19.4925 -7.3483 3.64044
head 8.02252 -3.42251 1.0586
rclavicle -5.11871e-015 -1.59028e-014
rhumerus -43.2936 -7.13194 -78.5852
rradius 20.2976
rwrist 12.1894
rhand -7.90099 20.3569
rfingers 7.12502
rthumb 18.0041 -8.8298
lclavicle -5.11871e-015 -1.59028e-014
lhumerus -37.9932 10.3031 81.5105
lradius 23.0051
lwrist -3.22912
lhand -4.10197 19.4637
lfingers 7.12502
lthumb 21.656 48.2726
rfemur -23.2322 15.5171 19.9787
rtibia 34.0719
rfoot -10.5175 -11.1848
rtoes 22.7071
lfemur -7.40025 1.28884 -20.8787
ltibia 60.4274
lfoot 24.4289 3.77511
ltoes 11.4635
321
root -0.064444 16.0326 11.5651 0.884815 2.95919 1.51524
lowerback 12.6934 -0.471616 -6.68832
upperback -4.62498 -1.5933 1.99867
thorax -12.0376 -0.137485 6.36619
lowerneck -10.3337 -5.23294 -3.63513
upperneck 19.469 -7.36522 3.76366
head 7.995 -3.42169 1.10252
rclavicle 5.39203e-015 1.98785e-015
rhumerus -43.0157 -7.41664 -78.4122
rradius 20.2934
rwrist 12.4516
rhand -7.8859 20.1708
rfingers 7.12502
rthumb 18.0186 -9.0145
lclavicle 5.39203e-015 1.98785e-015
lhumerus -38.1139 10.3092 81.4196
lradius 22.8063
lwrist -3.48309
lhand -4.34507 19.112
lfingers 7.12502
lthumb 21.4226 47.9477
rfemur -22.6282 15.5309 20.4129
rtibia 33.8862
rfoot -10.8508 -11.3383
rtoes 22.1948
lfemur -9.31023 1.6298 -20.5037
ltibia 62.675
lfoot 26.1533 4.92593
ltoes 14.7228
322
root -0.0756298 16.0453 11.6874 0.91863 3.18082 1.41412
lowerback 12.7666 -0.465485 -6.63946
upperback -4.60276 -1.58069 1.99874
thorax -12.0588 -0.134782 6.33781
lowerneck -10.6912 -5.42556 -3.64159
upperneck 19.5378 -7.63269 3.80365
head 8.09556 -3.53828 1.07741
rclavicle -4.17448e-015 1.98785e-014
rhumerus -42.6042 -7.38368 -78.452
rradius 20.4385
rwrist 12.4018
rhand -8.05221 20.6001
rfingers 7.12502
rthumb 17.8586 -8.59992
lclavicle -4.17448e-015 1.98785e-014
lhumerus -38.1676 10.4196 81.317
lradius 22.867
lwrist -3.62195
lhand -4.58672 19.1064
lfingers 7.12502
lthumb 21.1904 47.9682
rfemur -22.0089 15.3171 20.725
rtibia 33.6829
rfoot -11.1059 -11.3482
rtoes 21.6044
lfemur -11.231 1.80623 -20.2916
ltibia 64.7692
lfoot 27.2745 6.14246
ltoes 19.6557
323
root -0.0842555 16.0556 11.8131 0.932542 3.37791 1.45141
lowerback 12.7767 -0.447278 -6.70317
upperback -4.55468 -1.57241 1.94936
thorax -12.0114 -0.132078 6.316
lowerneck -11.0675 -5.5412 -3.65684
upperneck 19.6598 -7.80193 3.88184
head 8.21551 -3.60381 1.07524
rclavicle -2.12203e-014 -7.95139e-016
rhumerus -42.2927 -6.98422 -78.7373
rradius 20.7384
rwrist 11.9725
rhand -8.3074 21.0506
rfingers 7.12502
rthumb 17.613 -8.17165
lclavicle -2.12203e-014 -7.95139e-016
lhumerus -38.2277 10.5223 81.2171
lradius 23.1252
lwrist -3.38929
lhand -4.4608 19.3489
lfingers 7.12502
lthumb 21.3114 48.1971
rfemur -21.3792 15.1256 20.8832
rtibia 33.5519
rfoot -11.6663 -11.2361
rtoes 21.7266
lfemur -12.9935 1.90589 -20.2916
ltibia 66.6571
lfoot 27.6525 7.25579
ltoes 22.6481
324
root -0.0927329 16.0608 11.9359 0.878943 3.42117 1.35776
lowerback 12.8167 -0.364674 -6.67267
upperback -4.51609 -1.45627 1.95838
thorax -12.0102 -0.0800029 6.28339
lowerneck -11.0268 -5.67745 -3.87132
upperneck 19.7373 -7.99464 4.0683
head 8.25958 -3.69205 1.15041
rclavicle 9.56651e-015 3.97569e-016
rhumerus -42.0748 -6.78233 -78.8418
rradius 21.0628
rwrist 11.8502
rhand -8.50851 20.9058
rfingers 7.12502
rthumb 17.4195 -8.33367
lclavicle 9.56651e-015 3.97569e-016
lhumerus -38.3113 10.2038 81.3708
lradius 23.2172
lwrist -2.84058
lhand -4.54622 19.5052
lfingers 7.12502
lthumb 21.2294 48.3627
rfemur -20.71 15.1385 21.206
rtibia 33.4198
rfoot -12.2069 -11.2538
rtoes 21.698
lfemur -14.5446 2.2166 -20.1627
ltibia 68.4079
lfoot 26.6023 7.17791
ltoes 22.5337
325
root -0.0992228 16.0584 12.0568 0.77836 3.48738 1.39472
lowerback 12.8593 -0.283517 -6.71037
upperback -4.43297 -1.36006 1.90676
thorax -11.9566 -0.0389637 6.22496
lowerneck -10.9623 -5.7865 -3.9417
upperneck 19.7028 -8.14095 4.10919
head 8.2477 -3.76378 1.16108
rclavicle 1.59028e-015 6.36111e-015
rhumerus -41.7261 -6.76962 -78.8526
rradius 21.3191
rwrist 11.9173
rhand -8.52418 20.3401
rfingers 7.12502
rthumb 17.4044 -8.90075
lclavicle 1.59028e-015 6.36111e-015
lhumerus -38.2749 10.0355 81.4091
lradius 23.1429
lwrist -2.58486
lhand -4.6612 19.2956
lfingers 7.12502
lthumb 21.1189 48.1654
rfemur -20.0245 15.0935 21.3793
rtibia 33.3148
rfoot -12.4712 -11.3089
rtoes 21.3177
lfemur -15.901 2.50427 -20.2322
ltibia 69.946
lfoot 23.8779 6.13212
ltoes 19.2565
326
root -0.104731 16.0624 12.1774 0.674817 3.54422 1.26868
lowerback 12.9727 -0.206716 -6.56732
upperback -4.39712 -1.24087 1.879
thorax -12.0041 0.00653708 6.08845
lowerneck -10.8342 -5.88069 -3.98527
upperneck 19.5801 -8.27525 4.17827
head 8.1944 -3.82757 1.18082
rclavicle 3.3048e-015 -3.18055e-015
rhumerus -41.3857 -7.0013 -78.7436
rradius 21.4319
rwrist 12.1241
rhand -8.63797 20.477
rfingers 7.12502
rthumb 17.2949 -8.77345
lclavicle 3.3048e-015 -3.18055e-015
lhumerus -38.3091 10.1851 81.2274
lradius 23.0776
lwrist -2.6708
lhand -4.63352 19.0842
lfingers 7.12502
lthumb 21.1455 47.951
rfemur -19.3079 15.0055 21.7323
rtibia 33.1724
rfoot -12.7356 -11.2705
rtoes 21.3331
lfemur -17.3442 2.85393 -20.1047
ltibia 71.4034
lfoot 20.8108 4.21359
ltoes 14.0533
